<?xml version="1.0" encoding="UTF-8" standalone="no"?>
<svg
   width="500"
   height="500"
   version="1.1"
   viewBox="0 0 132.29 132.29"
   id="svg8"
   sodipodi:docname="equation_drawn.svg"
   inkscape:version="1.2.2 (732a01da63, 2022-12-09)"
   xmlns:inkscape="http://www.inkscape.org/namespaces/inkscape"
   xmlns:sodipodi="http://sodipodi.sourceforge.net/DTD/sodipodi-0.dtd"
   xmlns="http://www.w3.org/2000/svg"
   xmlns:svg="http://www.w3.org/2000/svg">
  <defs
     id="defs12" />
  <sodipodi:namedview
     id="namedview10"
     pagecolor="#ffffff"
     bordercolor="#000000"
     borderopacity="0.25"
     inkscape:showpageshadow="2"
     inkscape:pageopacity="0.0"
     inkscape:pagecheckerboard="0"
     inkscape:deskcolor="#d1d1d1"
     showgrid="false"
     inkscape:zoom="1.674"
     inkscape:cx="230.28674"
     inkscape:cy="249.70131"
     inkscape:window-width="1920"
     inkscape:window-height="1017"
     inkscape:window-x="-8"
     inkscape:window-y="-8"
     inkscape:window-maximized="1"
     inkscape:current-layer="svg8" />
  <g
     fill="#e6e6e6"
     id="g6"
     style="fill:#000000;stroke-width:0.788543"
     transform="matrix(1.2681614,0,0,1.2681614,-17.737343,-17.737801)">
    <path
       transform="translate(-13.06,22.028)"
       d="M 120.66,69.427 80.764,92.664 a 2.7496,2.7496 179.78 0 1 -2.7496,0.01046 l -40.072,-22.933 a 2.7496,2.7496 59.782 0 1 -1.3839,-2.376 l -0.17564,-46.17 a 2.7496,2.7496 119.78 0 1 1.3657,-2.3865 l 39.896,-23.237 a 2.7496,2.7496 179.78 0 1 2.7496,-0.01046 l 40.072,22.933 a 2.7496,2.7496 59.782 0 1 1.3839,2.376 l 0.17563,46.17 a 2.7496,2.7496 119.78 0 1 -1.3657,2.3865 z"
       stop-color="#000000"
       stroke-width="0"
       id="path2"
       style="fill:#000000" />
    <path
       d="m 32.473,99.061 c 0,0 7.4797,-42.872 20.25,-42.872 12.7703,0 14.23,27.73 28.277,27.912 14.047,0.18243 18.608,-50.716 18.608,-50.716"
       stop-color="#000000"
       stroke="#ffffff"
       stroke-linecap="square"
       stroke-linejoin="bevel"
       stroke-width="3.12957"
       id="path4"
       style="fill:#000000" />
  </g>
</svg>
