<?xml version="1.0" encoding="UTF-8"?>
<svg width="500" height="500" version="1.1" viewBox="0 0 132.29 132.29" xmlns="http://www.w3.org/2000/svg">
<g transform="matrix(1.2682 0 0 1.2682 -17.737 -17.738)">
<path transform="translate(-13.06,22.028)" d="m120.66 69.427-39.896 23.237a2.7496 2.7496 179.78 0 1-2.7496 0.01046l-40.072-22.933a2.7496 2.7496 59.782 0 1-1.3839-2.376l-0.17564-46.17a2.7496 2.7496 119.78 0 1 1.3657-2.3865l39.896-23.237a2.7496 2.7496 179.78 0 1 2.7496-0.01046l40.072 22.933a2.7496 2.7496 59.782 0 1 1.3839 2.376l0.17563 46.17a2.7496 2.7496 119.78 0 1-1.3657 2.3865z" fill="#808080" stop-color="#000000" stroke-width="0"/>
<path d="m66.103 81.879c-1.4257 0-2.6088 0.42063-3.5503 1.2618-0.94145 0.84121-1.4132 1.8644-1.4132 3.0693 0 1.1594 0.4855 2.1711 1.4539 3.0349 0.96835 0.86394 2.1378 1.2962 3.5097 1.2962 1.3988 0 2.5819-0.42063 3.5503-1.2618 0.99524-0.86394 1.4929-1.8871 1.4929-3.0693 0-0.79568-0.22744-1.5235-0.68474-2.1828-0.4573-0.65931-1.0771-1.1819-1.8572-1.5684-0.75319-0.38649-1.5868-0.58003-2.5013-0.58003z" fill="#f2f2f2"/>
<path d="m66.184 41.745c-1.5602 0-2.7846 0.55741-3.6722 1.6714-0.86077 1.114-1.2913 2.7965-1.2913 5.0472 0 0.7275 0.39084 3.8874 1.1709 9.4803l2.3794 18.789h2.3012l2.0167-15.755c0.1614-1.3413 0.52474-3.5581 1.0896-6.6499 0.59179-3.0919 0.88799-5.3086 0.88799-6.6499 0-1.9552-0.45801-3.4325-1.3726-4.4328-0.88767-1.0003-2.0571-1.501-3.5097-1.501z" fill="#f2f2f2"/>
</g>
</svg>
