<?xml version="1.0" encoding="UTF-8" standalone="no"?>
<svg
   width="500"
   height="500"
   version="1.1"
   viewBox="0 0 132.29 132.29"
   id="svg4616"
   sodipodi:docname="equation_drawn.svg"
   inkscape:version="1.2.2 (732a01da63, 2022-12-09)"
   xmlns:inkscape="http://www.inkscape.org/namespaces/inkscape"
   xmlns:sodipodi="http://sodipodi.sourceforge.net/DTD/sodipodi-0.dtd"
   xmlns="http://www.w3.org/2000/svg"
   xmlns:svg="http://www.w3.org/2000/svg">
  <defs
     id="defs4620" />
  <sodipodi:namedview
     id="namedview4618"
     pagecolor="#ffffff"
     bordercolor="#000000"
     borderopacity="0.25"
     inkscape:showpageshadow="2"
     inkscape:pageopacity="0.0"
     inkscape:pagecheckerboard="0"
     inkscape:deskcolor="#d1d1d1"
     showgrid="false"
     inkscape:zoom="1.674"
     inkscape:cx="199.22342"
     inkscape:cy="249.70131"
     inkscape:window-width="1920"
     inkscape:window-height="1017"
     inkscape:window-x="-8"
     inkscape:window-y="-8"
     inkscape:window-maximized="1"
     inkscape:current-layer="g4614" />
  <g
     transform="matrix(1.2682 0 0 1.2682 -17.737 -17.738)"
     id="g4614">
    <path
       transform="translate(-13.06,22.028)"
       d="m120.66 69.427-39.896 23.237a2.7496 2.7496 179.78 0 1-2.7496 0.01046l-40.072-22.933a2.7496 2.7496 59.782 0 1-1.3839-2.376l-0.17564-46.17a2.7496 2.7496 119.78 0 1 1.3657-2.3865l39.896-23.237a2.7496 2.7496 179.78 0 1 2.7496-0.01046l40.072 22.933a2.7496 2.7496 59.782 0 1 1.3839 2.376l0.17563 46.17a2.7496 2.7496 119.78 0 1-1.3657 2.3865z"
       stop-color="#000000"
       stroke-width="0"
       id="path4610" />
    <path
       d="m32.473 99.061s7.4797-42.872 20.25-42.872 14.23 27.73 28.277 27.912c14.047 0.18243 18.608-50.716 18.608-50.716"
       stop-color="#000000"
       stroke="#fff"
       stroke-linecap="square"
       stroke-linejoin="bevel"
       stroke-width="3.1296"
       id="path4612"
       style="stroke-width:5.21565999;stroke-dasharray:none" />
  </g>
</svg>
