<?xml version="1.0" encoding="UTF-8"?>
<svg width="500" height="500" version="1.1" viewBox="0 0 132.29 132.29" xmlns="http://www.w3.org/2000/svg">
<g transform="matrix(1.2682 0 0 1.2682 -17.737 -17.738)">
<path transform="translate(-13.06,22.028)" d="m120.66 69.427-39.896 23.237a2.7496 2.7496 179.78 0 1-2.7496 0.01046l-40.072-22.933a2.7496 2.7496 59.782 0 1-1.3839-2.376l-0.17564-46.17a2.7496 2.7496 119.78 0 1 1.3657-2.3865l39.896-23.237a2.7496 2.7496 179.78 0 1 2.7496-0.01046l40.072 22.933a2.7496 2.7496 59.782 0 1 1.3839 2.376l0.17563 46.17a2.7496 2.7496 119.78 0 1-1.3657 2.3865z" stop-color="#000000" stroke-width="0"/>
<path d="m32.473 99.061s7.4797-42.872 20.25-42.872 14.23 27.73 28.277 27.912c14.047 0.18243 18.608-50.716 18.608-50.716" stop-color="#000000" stroke="#fff" stroke-linecap="square" stroke-linejoin="bevel" stroke-width="5.2157"/>
</g>
</svg>
