<?xml version="1.0" encoding="UTF-8"?>
<svg version="1.1" viewBox="0 0 500 500" xmlns="http://www.w3.org/2000/svg">
<rect x="56.743" y="91.784" width="386.51" height="316.43" rx=".82382" ry=".82382" fill="none" stop-color="#000000" stroke="#74b1be" stroke-linecap="square" stroke-linejoin="bevel" stroke-width="6.5"/>
<rect transform="scale(-1,1)" x="-167.1" y="114.97" width="85.42" height="7" rx=".82382" ry=".82382" fill="#74b1be" stop-color="#000000" stroke="#74b1be" stroke-width="0"/>
<rect transform="matrix(0,-1,-1,0,0,0)" x="-202.25" y="-88.681" width="85.873" height="7" rx=".82382" ry=".82382" fill="#74b1be" stop-color="#000000" stroke="#74b1be" stroke-width="0"/>
<rect transform="scale(-1)" x="-167.1" y="-384.44" width="85.42" height="7" rx=".82382" ry=".82382" fill="#74b1be" stop-color="#000000" stroke="#74b1be" stroke-width="0"/>
<rect transform="rotate(90)" x="297.16" y="-88.681" width="85.873" height="7" rx=".82382" ry=".82382" fill="#74b1be" stop-color="#000000" stroke="#74b1be" stroke-width="0"/>
<rect transform="scale(1,-1)" x="333.19" y="-384.44" width="85.42" height="7" rx=".82382" ry=".82382" fill="#74b1be" stop-color="#000000" stroke="#74b1be" stroke-width="0"/>
<rect transform="matrix(0,1,1,0,0,0)" x="297.16" y="411.61" width="85.873" height="7" rx=".82382" ry=".82382" fill="#74b1be" stop-color="#000000" stroke="#74b1be" stroke-width="0"/>
<rect x="333.19" y="114.97" width="85.42" height="7" rx=".82382" ry=".82382" fill="#74b1be" stop-color="#000000" stroke="#74b1be" stroke-width="0"/>
<rect transform="rotate(-90)" x="-202.25" y="411.61" width="85.873" height="7" rx=".82382" ry=".82382" fill="#74b1be" stop-color="#000000" stroke="#74b1be" stroke-width="0"/>
</svg>
