<?xml version="1.0" encoding="UTF-8"?>
<svg width="500" height="500" version="1.1" viewBox="0 0 132.29 132.29" xmlns="http://www.w3.org/2000/svg">
<path d="m65.437 13.078c-29.309 0.39229-52.748 24.472-52.358 53.782 0.39228 29.297 24.47 52.744 53.778 52.354 29.303-0.39459 52.747-24.475 52.357-53.782-0.39246-29.3-24.471-52.745-53.776-52.354zm-0.1569 86.431-0.29303-5e-3c-4.5135-0.13383-7.6955-3.459-7.5675-7.9055 0.12576-4.3704 3.3851-7.5432 7.7498-7.5432l0.2619 5e-3c4.6392 0.13732 7.7855 3.429 7.6551 8.0036-0.1292 4.3831-3.3378 7.4452-7.8063 7.4452zm18.985-38.739c-1.0615 1.508-3.3955 3.3805-6.3364 5.6718l-3.2386 2.236c-1.7779 1.3822-2.8509 2.6825-3.2536 3.962-0.31729 1.0072-0.47305 1.2738-0.50073 3.3228l-5e-3 0.52034h-12.366l0.0358-1.0464c0.15114-4.3012 0.25727-6.8314 2.0398-8.922 2.7967-3.2836 8.9658-7.256 9.2277-7.4244 0.88378-0.66572 1.6291-1.4237 2.1841-2.2337 1.298-1.7895 1.8725-3.1982 1.8725-4.5827 0-1.921-0.56996-3.6978-1.6972-5.2796-1.0834-1.5264-3.1417-2.2994-6.1184-2.2994-2.9524 0-4.9738 0.93685-6.183 2.859-1.2437 1.9764-1.8725 4.052-1.8725 6.1726v0.52727h-12.75l0.0231-0.55034c0.32883-7.8098 3.1163-13.433 8.2816-16.714 3.2455-2.0894 7.2836-3.1486 11.996-3.1486 6.168 0 11.375 1.4987 15.474 4.4546 4.1535 2.9951 6.2603 7.4809 6.2603 13.333 0 3.2732-1.0338 6.3479-3.0736 9.1423z" stroke-width=".26458"/>
</svg>
