<?xml version="1.0" encoding="UTF-8"?>
<svg width="2e3" height="550" version="1.1" viewBox="0 0 529.17 145.52" xmlns="http://www.w3.org/2000/svg">
<g transform="translate(2.6458 1.0583)" stroke-linecap="round">
<text x="152.16922" y="20.807354" fill="#808080" font-family="'Montserrat Thin'" font-size="109.36px" stop-color="#000000" stroke="#999999" stroke-width="2.6723" style="font-variation-settings:'wght' 597" xml:space="preserve"><tspan x="152.16922" y="20.807354" stroke-width="2.6723"/></text>
<g transform="translate(-20.638 1.5875)" fill="#e6e6e6" stop-color="#000000" stroke="#e6e6e6" stroke-width="2.6723" style="font-variation-settings:'wght' 597" aria-label="G">
<path d="m89.562 122.85q-8.9677 0-16.514-2.8434-7.4366-2.9528-13.014-8.2022-5.5775-5.3587-8.6396-12.577-3.0621-7.2179-3.0621-15.748t3.0621-15.748 8.6396-12.467q5.6868-5.3587 13.233-8.2021 7.546-2.9528 16.514-2.9528 9.6239 0 17.389 3.1715 7.8741 3.1715 13.342 9.2958l-8.9677 8.749q-4.4838-4.5932-9.7332-6.6711-5.14-2.1872-11.374-2.1872-6.1243 0-11.264 1.9685-5.0307 1.9685-8.8583 5.5775-3.7183 3.6089-5.7962 8.6396-1.9685 4.9213-1.9685 10.827 0 5.7962 1.9685 10.827 2.0779 4.9213 5.7962 8.6396 3.8277 3.6089 8.8583 5.5775t11.155 1.9685q5.6868 0 10.936-1.7498 5.3587-1.8592 10.171-6.1243l7.9834 10.499q-5.9056 4.8119-13.889 7.3273-7.8741 2.406-15.967 2.406zm16.623-11.592v-28.653h13.233v30.512z"/>
</g>
</g>
<g transform="translate(-20.108)" fill="#e6e6e6" stop-color="#000000" stroke="#e6e6e6" stroke-linecap="round" stroke-width="2.6723" aria-label="raphica">
<path d="m138.91 123.77v-55.13h12.286v15.176l-1.4454-4.4393q2.3745-5.575 7.743-8.4657t13.215-2.8907v12.182q-0.82592-0.10324-1.5486-0.10324-0.61944-0.10324-1.3421-0.10324-7.33 0-11.666 4.3361-4.3361 4.2328-4.3361 12.699v26.739z" style="font-variation-settings:'wght' 597"/>
<path d="m216.23 123.77v-11.15l-0.61944-2.3745v-19.512q0-5.6782-3.5102-8.7754-3.4069-3.2004-10.324-3.2004-4.6458 0-9.1884 1.4454-4.4393 1.4454-7.5365 3.9231l-5.0588-9.2916q4.4393-3.4069 10.53-5.0588 6.1944-1.7551 12.802-1.7551 11.976 0 18.48 5.7814 6.6074 5.6782 6.6074 17.654v32.314zm-17.241 0.61944q-6.2976 0-10.943-2.0648t-7.2268-5.7814q-2.4778-3.8199-2.4778-8.5689 0-4.6458 2.2713-8.2592 2.2713-3.7166 7.2268-5.8847 5.0588-2.2713 13.421-2.2713h16.002v8.5689h-15.073q-6.6074 0-8.9819 2.168-2.2713 2.0648-2.2713 5.162 0 3.5102 2.7875 5.575 2.8907 2.0648 7.8462 2.0648 4.749 0 8.4657-2.168 3.8199-2.168 5.575-6.4009l2.168 7.743q-1.9616 4.8523-6.7106 7.5365-4.749 2.581-12.079 2.581z" style="font-variation-settings:'wght' 597"/>
<path d="m275.49 124.39q-6.8138 0-12.389-2.994-5.4717-3.0972-8.6722-9.2916-3.2004-6.2976-3.2004-15.899 0-9.7046 3.0972-15.899t8.5689-9.1884q5.575-3.0972 12.595-3.0972 8.0527 0 14.35 3.5102t9.911 9.8078q3.6134 6.2976 3.6134 14.867 0 8.5689-3.6134 14.867t-9.911 9.8078-14.35 3.5102zm-30.559 19.409v-75.159h12.286v13.111l-0.41296 14.557 1.0324 14.557v32.934zm29.114-30.249q4.6458 0 8.2592-2.0648 3.7166-2.168 5.8847-6.0912 2.2713-3.9231 2.2713-9.1884 0-5.3685-2.2713-9.1884-2.168-3.9231-5.8847-5.9879-3.6134-2.168-8.2592-2.168-4.749 0-8.4657 2.168-3.6134 2.0648-5.8847 5.9879-2.168 3.8199-2.168 9.1884 0 5.2652 2.168 9.1884 2.2713 3.9231 5.8847 6.0912 3.7166 2.0648 8.4657 2.0648z" style="font-variation-settings:'wght' 597"/>
<path d="m346.93 68.023q6.7106 0 11.873 2.581t8.156 7.9495q2.994 5.2652 2.994 13.628v31.591h-12.802v-29.94q0-7.33-3.4069-10.943-3.4069-3.6134-9.7046-3.6134-4.5426 0-8.0527 1.8583t-5.4717 5.575q-1.8583 3.6134-1.8583 9.1884v27.875h-12.905v-76.604h12.905v36.34l-2.7875-4.5426q2.7875-5.2652 8.3624-8.0527 5.575-2.8907 12.699-2.8907z" style="font-variation-settings:'wght' 597"/>
<path d="m386.48 123.77v-55.13h12.905v55.13zm6.5041-64.319q-3.6134 0-5.9879-2.168-2.2713-2.2713-2.2713-5.4717 0-3.3037 2.2713-5.4717 2.3745-2.2713 5.9879-2.2713t5.8847 2.168q2.3745 2.0648 2.3745 5.3685t-2.2713 5.575-5.9879 2.2713z" style="font-variation-settings:'wght' 597"/>
<path d="m441.5 124.39q-8.5689 0-15.383-3.6134-6.7106-3.6134-10.53-9.911-3.8199-6.4009-3.8199-14.66 0-8.2592 3.8199-14.557 3.8199-6.4009 10.53-10.014 6.8138-3.6134 15.383-3.6134 8.0527 0 14.247 3.3037 6.1944 3.2004 9.2916 9.4981l-9.8078 5.7814q-2.4778-3.9231-6.0912-5.7814-3.5102-1.9616-7.743-1.9616-4.749 0-8.5689 2.168-3.7166 2.0648-5.9879 5.9879-2.168 3.8199-2.168 9.1884t2.168 9.2916q2.2713 3.8199 5.9879 5.9879 3.8199 2.0648 8.5689 2.0648 4.2328 0 7.743-1.8583 3.6134-1.8583 6.0912-5.8847l9.8078 5.7814q-3.0972 6.1944-9.2916 9.4981t-14.247 3.3037z" style="font-variation-settings:'wght' 597"/>
<path d="m511.01 123.77v-11.15l-0.61944-2.3745v-19.512q0-5.6782-3.5102-8.7754-3.4069-3.2004-10.324-3.2004-4.6458 0-9.1884 1.4454-4.4393 1.4454-7.5365 3.9231l-5.0588-9.2916q4.4393-3.4069 10.53-5.0588 6.1944-1.7551 12.802-1.7551 11.976 0 18.48 5.7814 6.6074 5.6782 6.6074 17.654v32.314zm-17.241 0.61944q-6.2976 0-10.943-2.0648t-7.2268-5.7814q-2.4778-3.8199-2.4778-8.5689 0-4.6458 2.2713-8.2592 2.2713-3.7166 7.2268-5.8847 5.0588-2.2713 13.421-2.2713h16.002v8.5689h-15.073q-6.6074 0-8.9819 2.168-2.2713 2.0648-2.2713 5.162 0 3.5102 2.7875 5.575 2.8907 2.0648 7.8462 2.0648 4.749 0 8.4657-2.168 3.8199-2.168 5.575-6.4009l2.168 7.743q-1.9616 4.8523-6.7106 7.5365-4.749 2.581-12.079 2.581z" style="font-variation-settings:'wght' 597"/>
</g>
<text x="258.93073" y="218.51956" fill="#000000" font-family="'Montserrat Thin'" font-size="109.36px" stop-color="#000000" stroke-linecap="round" stroke-width="2.6723" style="font-variant-caps:normal;font-variant-east-asian:normal;font-variant-ligatures:normal;font-variant-numeric:normal;font-variation-settings:'wght' 597" xml:space="preserve"><tspan x="258.93073" y="218.51956" stroke-width="2.6723"/></text>
<text x="-183.34691" y="184.09526" fill="#000000" font-family="'Montserrat Thin'" font-size="109.36px" stop-color="#000000" stroke-linecap="round" stroke-width="2.6723" style="font-variant-caps:normal;font-variant-east-asian:normal;font-variant-ligatures:normal;font-variant-numeric:normal;font-variation-settings:'wght' 597" xml:space="preserve"><tspan x="-183.34691" y="184.09526" stroke-width="2.6723"/></text>
<text x="346.48822" y="-64.358505" fill="#001c2e" font-family="'Montserrat Thin'" font-size="109.36px" stop-color="#000000" stroke-linecap="round" stroke-width="2.6723" style="font-variant-caps:normal;font-variant-east-asian:normal;font-variant-ligatures:normal;font-variant-numeric:normal;font-variation-settings:'wght' 597" xml:space="preserve"><tspan x="346.48822" y="-64.358505" stroke-width="2.6723"/></text>
</svg>
