<?xml version="1.0" encoding="UTF-8"?>
<svg width="2e3" height="550" version="1.1" viewBox="0 0 529.17 145.52" xmlns="http://www.w3.org/2000/svg">
<g transform="translate(2.6458 1.0583)">
<path d="m68.838 36.067c19.624-2.8194 36.327 13.953 37.41 32.906 0.2313 4.0493-0.19188 7.9748-1.1701 11.694-4.4723 17.004-20.546 29.697-38.713 30.196-24.764 0.68036-45.132-20.27-45.437-44.712-0.33194-26.566 22.215-48.319 48.517-48.41 28.11-0.09718 51.066 23.818 50.993 51.701-0.0106 3.9426-0.46866 7.7877-1.3253 11.49-5.5467 23.973-27.787 41.974-53.14 41.798-30.69-0.21229-55.676-26.412-55.365-56.921 0.32342-31.801 27.504-57.667 59.142-57.265 32.825 0.41696 59.504 28.499 59.022 61.173-0.49756 33.775-29.417 61.21-63.052 60.658-34.665-0.56822-62.808-30.268-62.194-64.8 0.62313-35.051 30.327-63.69 65.267-63.652" fill="#002e4d" fill-rule="evenodd" stroke="#002e4d" stroke-width=".37491"/>
<rect x="80.076" y="60.414" width="43.248" height="11.049" rx="1.6321" ry="1.6321" fill="#002e4d" stop-color="#000000" stroke="#002e4d" stroke-linecap="round" stroke-width="1.8746"/>
<rect x="75.775" y="37.37" width="43.248" height="26.832" rx="1.6321" ry="1.6321" fill="#002e4d" stop-color="#000000" stroke="#002e4d" stroke-linecap="round" stroke-width="1.8746"/>
<rect x="82.703" y="61.495" width="37.37" height="11.049" rx="0" ry="0" fill="#fff" stop-color="#000000"/>
<rect x="63.977" y="29.793" width="43.248" height="26.832" rx="1.6321" ry="1.6321" fill="#002e4d" stop-color="#000000" stroke="#002e4d" stroke-linecap="round" stroke-width="1.8746"/>
<rect x="57.269" y="22.414" width="43.248" height="26.832" rx="1.6321" ry="1.6321" fill="#002e4d" stop-color="#000000" stroke="#002e4d" stroke-linecap="round" stroke-width="1.8746"/>
<rect x="69.584" y="16.255" width="18.384" height="27.393" rx="0" ry="0" fill="#002e4d" stop-color="#000000" stroke="#002e4d" stroke-linecap="round" stroke-width="1.8746"/>
<rect x="68.832" y="9.5091" width="1.1009" height="27.668" rx="0" ry="0" fill="#002e4d" stop-color="#000000" stroke="#002e4d" stroke-linecap="round" stroke-width="1.8746"/>
<rect x="52.891" y="36.56" width=".90418" height="75.896" fill="#fff" stop-color="#000000"/>
<rect transform="rotate(90)" x="66.544" y="-73.543" width=".90428" height="58.905" fill="#fff" stop-color="#000000"/>
<path d="m31.025 30.294c0.2585 6.7211 6.55 36.6 22.652 36.558 17.12-0.04435 30.723 23.671 30.631 41.311" fill="none" stop-color="#000000" stroke="#fff" stroke-linecap="round" stroke-width="3.7866"/>
<path transform="matrix(1.417 0 0 1.417 1.5321 -12.663)" d="m52.292 56.267-1.6152 0.93252v-1.865z" fill="#fff" stop-color="#000000"/>
<path transform="matrix(0 -1.417 1.417 0 -26.383 108.76)" d="m52.292 56.267-1.6152 0.93252v-1.865z" fill="#fff" stop-color="#000000"/>
<path d="m29.451 15.057s0.44389 2.115 1.2928 8.1625c14.281-12.04 27.702-14.27 37.188-14.474-0.035319 3.7228-0.027517 5.7929-0.032743 8.8465-21.541 0.56176-34.573 16.114-34.573 16.114 0.07131 2.3356 6.1988 31.391 20.077 31.218 14.37-0.17981 30.372 16.186 32.71 40.466 2.2914-1.0127 20.048-13.017 20.355-32.832-8.7426 0.0746-19.488-0.01842-23.768-0.02138 0.0036-6.0082 0.0064-8.107-0.02529-11.029 16.431-0.14112 35.899-0.0226 37.397-0.01434-4e-3 3.8332 0.20323 7.5556 0.0699 10.903-1.2222 30.675-27.945 43.937-31.892 45.422 1.2732 8.0722 1.3404 8.291 1.3404 8.291 3.5871-1.7149 37.592-13.786 39.328-57.93-0.02352-26.498-17.808-42.531-24.513-47.89-5.4909-4.3888-19.321-12.169-35.607-11.91l-0.030761-6.6544c-21.75-0.31137-39.316 13.332-39.316 13.332z" fill="#999" stop-color="#000000" style="mix-blend-mode:multiply"/>
</g>
<g fill="#001c2e" stop-color="#000000" stroke-linecap="round" stroke-width="2.6723" aria-label="raphica">
<path d="m138.91 123.77v-55.13h12.286v15.176l-1.4454-4.4393q2.3745-5.575 7.743-8.4657 5.3685-2.8907 13.215-2.8907v12.182q-0.82592-0.10324-1.5486-0.10324-0.61944-0.10324-1.3421-0.10324-7.33 0-11.666 4.3361-4.3361 4.2328-4.3361 12.699v26.739z" style="font-variation-settings:'wght' 597"/>
<path d="m216.23 123.77v-11.15l-0.61944-2.3745v-19.512q0-5.6782-3.5102-8.7754-3.4069-3.2004-10.324-3.2004-4.6458 0-9.1884 1.4454-4.4393 1.4454-7.5365 3.9231l-5.0588-9.2916q4.4393-3.4069 10.53-5.0588 6.1944-1.7551 12.802-1.7551 11.976 0 18.48 5.7814 6.6074 5.6782 6.6074 17.654v32.314zm-17.241 0.61944q-6.2976 0-10.943-2.0648t-7.2268-5.7814q-2.4778-3.8199-2.4778-8.5689 0-4.6458 2.2713-8.2592 2.2713-3.7166 7.2268-5.8847 5.0588-2.2713 13.421-2.2713h16.002v8.5689h-15.073q-6.6074 0-8.9819 2.168-2.2713 2.0648-2.2713 5.162 0 3.5102 2.7875 5.575 2.8907 2.0648 7.8462 2.0648 4.749 0 8.4657-2.168 3.8199-2.168 5.575-6.4009l2.168 7.743q-1.9616 4.8523-6.7106 7.5365-4.749 2.581-12.079 2.581z" style="font-variation-settings:'wght' 597"/>
<path d="m275.49 124.39q-6.8138 0-12.389-2.994-5.4717-3.0972-8.6722-9.2916-3.2004-6.2976-3.2004-15.899 0-9.7046 3.0972-15.899 3.0972-6.1944 8.5689-9.1884 5.575-3.0972 12.595-3.0972 8.0527 0 14.35 3.5102t9.911 9.8078q3.6134 6.2976 3.6134 14.867 0 8.5689-3.6134 14.867t-9.911 9.8078-14.35 3.5102zm-30.559 19.409v-75.159h12.286v13.111l-0.41296 14.557 1.0324 14.557v32.934zm29.114-30.249q4.6458 0 8.2592-2.0648 3.7166-2.168 5.8847-6.0912 2.2713-3.9231 2.2713-9.1884 0-5.3685-2.2713-9.1884-2.168-3.9231-5.8847-5.9879-3.6134-2.168-8.2592-2.168-4.749 0-8.4657 2.168-3.6134 2.0648-5.8847 5.9879-2.168 3.8199-2.168 9.1884 0 5.2652 2.168 9.1884 2.2713 3.9231 5.8847 6.0912 3.7166 2.0648 8.4657 2.0648z" style="font-variation-settings:'wght' 597"/>
<path d="m346.93 68.023q6.7106 0 11.873 2.581t8.156 7.9495q2.994 5.2652 2.994 13.628v31.591h-12.802v-29.94q0-7.33-3.4069-10.943-3.4069-3.6134-9.7046-3.6134-4.5426 0-8.0527 1.8583t-5.4717 5.575q-1.8583 3.6134-1.8583 9.1884v27.875h-12.905v-76.604h12.905v36.34l-2.7875-4.5426q2.7875-5.2652 8.3624-8.0527 5.575-2.8907 12.699-2.8907z" style="font-variation-settings:'wght' 597"/>
<path d="m386.48 123.77v-55.13h12.905v55.13zm6.5041-64.319q-3.6134 0-5.9879-2.168-2.2713-2.2713-2.2713-5.4717 0-3.3037 2.2713-5.4717 2.3745-2.2713 5.9879-2.2713t5.8847 2.168q2.3745 2.0648 2.3745 5.3685t-2.2713 5.575-5.9879 2.2713z" style="font-variation-settings:'wght' 597"/>
<path d="m441.5 124.39q-8.5689 0-15.383-3.6134-6.7106-3.6134-10.53-9.911-3.8199-6.4009-3.8199-14.66 0-8.2592 3.8199-14.557 3.8199-6.4009 10.53-10.014 6.8138-3.6134 15.383-3.6134 8.0527 0 14.247 3.3037 6.1944 3.2004 9.2916 9.4981l-9.8078 5.7814q-2.4778-3.9231-6.0912-5.7814-3.5102-1.9616-7.743-1.9616-4.749 0-8.5689 2.168-3.7166 2.0648-5.9879 5.9879-2.168 3.8199-2.168 9.1884 0 5.3685 2.168 9.2916 2.2713 3.8199 5.9879 5.9879 3.8199 2.0648 8.5689 2.0648 4.2328 0 7.743-1.8583 3.6134-1.8583 6.0912-5.8847l9.8078 5.7814q-3.0972 6.1944-9.2916 9.4981t-14.247 3.3037z" style="font-variation-settings:'wght' 597"/>
<path d="m511.01 123.77v-11.15l-0.61944-2.3745v-19.512q0-5.6782-3.5102-8.7754-3.4069-3.2004-10.324-3.2004-4.6458 0-9.1884 1.4454-4.4393 1.4454-7.5365 3.9231l-5.0588-9.2916q4.4393-3.4069 10.53-5.0588 6.1944-1.7551 12.802-1.7551 11.976 0 18.48 5.7814 6.6074 5.6782 6.6074 17.654v32.314zm-17.241 0.61944q-6.2976 0-10.943-2.0648t-7.2268-5.7814q-2.4778-3.8199-2.4778-8.5689 0-4.6458 2.2713-8.2592 2.2713-3.7166 7.2268-5.8847 5.0588-2.2713 13.421-2.2713h16.002v8.5689h-15.073q-6.6074 0-8.9819 2.168-2.2713 2.0648-2.2713 5.162 0 3.5102 2.7875 5.575 2.8907 2.0648 7.8462 2.0648 4.749 0 8.4657-2.168 3.8199-2.168 5.575-6.4009l2.168 7.743q-1.9616 4.8523-6.7106 7.5365-4.749 2.581-12.079 2.581z" style="font-variation-settings:'wght' 597"/>
</g>
<text x="258.93073" y="218.51956" fill="#000000" font-family="'Montserrat Thin'" font-size="109.36px" stop-color="#000000" stroke-linecap="round" stroke-width="2.6723" style="font-variant-caps:normal;font-variant-east-asian:normal;font-variant-ligatures:normal;font-variant-numeric:normal;font-variation-settings:'wght' 597" xml:space="preserve"><tspan x="258.93073" y="218.51956" stroke-width="2.6723"/></text>
<text x="-183.34691" y="184.09526" fill="#000000" font-family="'Montserrat Thin'" font-size="109.36px" stop-color="#000000" stroke-linecap="round" stroke-width="2.6723" style="font-variant-caps:normal;font-variant-east-asian:normal;font-variant-ligatures:normal;font-variant-numeric:normal;font-variation-settings:'wght' 597" xml:space="preserve"><tspan x="-183.34691" y="184.09526" stroke-width="2.6723"/></text>
<text x="346.48822" y="-64.358505" fill="#001c2e" font-family="'Montserrat Thin'" font-size="109.36px" stop-color="#000000" stroke-linecap="round" stroke-width="2.6723" style="font-variant-caps:normal;font-variant-east-asian:normal;font-variant-ligatures:normal;font-variant-numeric:normal;font-variation-settings:'wght' 597" xml:space="preserve"><tspan x="346.48822" y="-64.358505" stroke-width="2.6723"/></text>
</svg>
