<?xml version="1.0" encoding="UTF-8"?>
<svg width="500" height="500" version="1.1" viewBox="0 0 132.29 132.29" xmlns="http://www.w3.org/2000/svg">
<path d="m68.838 36.067c19.624-2.8194 36.327 13.953 37.41 32.906 0.2313 4.0493-0.19188 7.9748-1.1701 11.694-4.4723 17.004-20.546 29.697-38.713 30.196-24.764 0.68036-45.132-20.27-45.437-44.712-0.33194-26.566 22.215-48.319 48.517-48.41 28.11-0.09718 51.066 23.818 50.993 51.701-0.0106 3.9426-0.46866 7.7877-1.3253 11.49-5.5467 23.973-27.787 41.974-53.14 41.798-30.69-0.21229-55.676-26.412-55.365-56.921 0.32342-31.801 27.504-57.667 59.142-57.265 32.825 0.41696 59.504 28.499 59.022 61.173-0.49756 33.775-29.417 61.21-63.052 60.658-34.665-0.56822-62.808-30.268-62.194-64.8 0.62313-35.051 30.327-63.69 65.267-63.652" fill="#002e4d" fill-rule="evenodd" stroke="#002e4d" stroke-width=".37491"/>
<rect x="80.076" y="60.414" width="43.248" height="11.049" rx="1.6321" ry="1.6321" fill="#002e4d" stop-color="#000000" stroke="#002e4d" stroke-linecap="round" stroke-width="1.8746"/>
<rect x="75.775" y="37.37" width="43.248" height="26.832" rx="1.6321" ry="1.6321" fill="#002e4d" stop-color="#000000" stroke="#002e4d" stroke-linecap="round" stroke-width="1.8746"/>
<rect x="82.703" y="61.495" width="37.37" height="11.049" rx="0" ry="0" fill="#fff" stop-color="#000000"/>
<rect x="63.977" y="29.793" width="43.248" height="26.832" rx="1.6321" ry="1.6321" fill="#002e4d" stop-color="#000000" stroke="#002e4d" stroke-linecap="round" stroke-width="1.8746"/>
<rect x="57.269" y="22.414" width="43.248" height="26.832" rx="1.6321" ry="1.6321" fill="#002e4d" stop-color="#000000" stroke="#002e4d" stroke-linecap="round" stroke-width="1.8746"/>
<rect x="69.584" y="16.255" width="18.384" height="27.393" rx="0" ry="0" fill="#002e4d" stop-color="#000000" stroke="#002e4d" stroke-linecap="round" stroke-width="1.8746"/>
<rect x="68.832" y="9.5091" width="1.1009" height="27.668" rx="0" ry="0" fill="#002e4d" stop-color="#000000" stroke="#002e4d" stroke-linecap="round" stroke-width="1.8746"/>
<rect x="52.891" y="36.56" width=".90418" height="75.896" fill="#fff" stop-color="#000000"/>
<rect transform="rotate(90)" x="66.544" y="-73.543" width=".90428" height="58.905" fill="#fff" stop-color="#000000"/>
<path d="m31.025 30.294c0.2585 6.7211 6.55 36.6 22.652 36.558 17.12-0.04435 30.723 23.671 30.631 41.311" fill="none" stop-color="#000000" stroke="#fff" stroke-linecap="round" stroke-width="3.7866"/>
<path transform="matrix(1.417 0 0 1.417 1.5321 -12.663)" d="m52.292 56.267-1.6152 0.93252v-1.865z" fill="#fff" stop-color="#000000"/>
<path transform="matrix(0 -1.417 1.417 0 -26.383 108.76)" d="m52.292 56.267-1.6152 0.93252v-1.865z" fill="#fff" stop-color="#000000"/>
<path d="m29.451 15.057s0.44389 2.115 1.2928 8.1625c14.281-12.04 27.702-14.27 37.188-14.474-0.035319 3.7228-0.027517 5.7929-0.032743 8.8465-21.541 0.56176-34.573 16.114-34.573 16.114 0.07131 2.3356 6.1988 31.391 20.077 31.218 14.37-0.17981 30.372 16.186 32.71 40.466 2.2914-1.0127 20.048-13.017 20.355-32.832-8.7426 0.0746-19.488-0.01842-23.768-0.02138 0.0036-6.0082 0.0064-8.107-0.02529-11.029 16.431-0.14112 35.899-0.0226 37.397-0.01434-4e-3 3.8332 0.20323 7.5556 0.0699 10.903-1.2222 30.675-27.945 43.937-31.892 45.422 1.2732 8.0722 1.3404 8.291 1.3404 8.291 3.5871-1.7149 37.592-13.786 39.328-57.93-0.02352-26.498-17.808-42.531-24.513-47.89-5.4909-4.3888-19.321-12.169-35.607-11.91l-0.030761-6.6544c-21.75-0.31137-39.316 13.332-39.316 13.332z" fill="#999" stop-color="#000000" style="mix-blend-mode:multiply"/>
</svg>
