<?xml version="1.0" encoding="UTF-8"?>
<svg width="500" height="500" version="1.1" viewBox="0 0 132.29 132.29" xmlns="http://www.w3.org/2000/svg">
<rect x="6.4192" y="35.091" width="119.45" height="72.24" rx="5.418" ry="5.418" stroke-width=".42022"/>
<rect x="14.319" y="30.736" width="23.899" height="20.382" rx="5.418" ry="5.418" stroke-width=".21461"/>
<path d="m56.446 20.287h22.867c3.0016 0 3.9627 2.7928 5.418 5.418l5.2917 9.5459c1.4552 2.6252-7.7081 5.418-10.71 5.418h-22.867c-3.0016 0-12.801-2.8553-11.239-5.418l5.8208-9.5459c1.5627-2.5627 2.4164-5.418 5.418-5.418z" stroke-width=".21461"/>
<path d="m97.736 73.059a30.303 30.303 0 0 1-31.432 28.851 30.303 30.303 0 0 1-29.126-31.177 30.303 30.303 0 0 1 30.919-29.4 30.303 30.303 0 0 1 29.671 30.659" fill-opacity="0" stroke="#fff" stroke-linecap="round" stroke-width="5.2917"/>
<path d="m89.489 72.669a22.047 22.047 0 0 1-22.869 20.99 22.047 22.047 0 0 1-21.191-22.683 22.047 22.047 0 0 1 22.495-21.39 22.047 22.047 0 0 1 21.587 22.306" fill="#fff" stroke-width="0"/>
<path d="m115.44 45.201a0.37503 0.37499 0 0 1-0.38901 0.35702 0.37503 0.37499 0 0 1-0.36047-0.38581 0.37503 0.37499 0 0 1 0.38266-0.36382 0.37503 0.37499 0 0 1 0.36721 0.37939" fill-opacity="0" stroke="#fff" stroke-linecap="round" stroke-width="12.526"/>
</svg>
