<?xml version="1.0" encoding="UTF-8"?>
<svg width="500" height="500" version="1.1" viewBox="0 0 132.29 132.29" xmlns="http://www.w3.org/2000/svg">
<path d="m52.885 53.25c-2.38-4.4775-2.8988-14.933-2.8988-14.933l0.78215-15.713s0.46248-7.1703 2.1167-10.237c1.2125-2.2479 2.4164-5.418 5.418-5.418h17.802c3.0016 0 4.1742 3.1872 5.418 5.418 1.8688 3.3517 2.6458 11.204 2.6458 11.204l0.32196 15.18s-0.63017 10.155-2.9678 14.499c-1.2102 2.2491-2.4164 5.418-5.418 5.418h-17.802c-3.0016 0-4.2192-3.1627-5.418-5.418z" stroke-width=".26458"/>
<path d="m80.134 51.792c4.4775-2.38 14.933-2.8988 14.933-2.8988l15.713 0.78215s7.1703 0.46248 10.237 2.1167c2.2479 1.2125 5.418 2.4164 5.418 5.418v17.802c0 3.0016-3.1872 4.1742-5.418 5.418-3.3517 1.8688-11.204 2.6458-11.204 2.6458l-15.18 0.32196s-10.155-0.63017-14.499-2.9678c-2.2491-1.2102-5.418-2.4164-5.418-5.418v-17.802c0-3.0016 3.1627-4.2192 5.418-5.418z" stroke-width=".26458"/>
<path d="m86.507 65.115c4.849 1.4832 12.609 8.5098 12.609 8.5098l10.558 11.664s4.7431 5.3972 5.7421 8.7355c0.73218 2.4469 2.1224 5.5397 0 7.6622l-12.588 12.588c-2.1224 2.1224-5.2053 0.69784-7.6622 0-3.6915-1.0485-9.7935-6.0517-9.7935-6.0517l-10.962-10.506s-6.7351-7.6263-8.1541-12.351c-0.73462-2.4461-2.1224-5.5397-2e-6 -7.6622l12.588-12.588c2.1224-2.1224 5.2198-0.74704 7.6622 3e-6z" stroke-width=".26458"/>
<path d="m66.208 46.878c1.4832-4.849 8.5098-12.609 8.5098-12.609l11.664-10.558s5.3972-4.7431 8.7355-5.7421c2.4469-0.73218 5.5397-2.1224 7.6622 0l12.588 12.588c2.1224 2.1224 0.69785 5.2053 0 7.6622-1.0485 3.6915-6.0517 9.7935-6.0517 9.7935l-10.506 10.962s-7.6263 6.7351-12.351 8.1541c-2.4461 0.73462-5.5397 2.1224-7.6622 2e-6l-12.588-12.588c-2.1224-2.1224-0.74704-5.2198 3e-6 -7.6622z" stroke-width=".26458"/>
<path class="UnoptimicedTransforms" transform="translate(16.922 40.824)" d="m51.827 53.25c-2.38-4.4775-2.8988-14.933-2.8988-14.933l0.78215-15.713s0.46248-7.1703 2.1167-10.237c1.2125-2.2479 2.4164-5.418 5.418-5.418h17.802c3.0016 0 4.1742 3.1872 5.418 5.418 1.8688 3.3517 2.6458 11.204 2.6458 11.204l0.32196 15.18s-0.63017 10.155-2.9678 14.499c-1.2102 2.2491-2.4164 5.418-5.418 5.418h-17.802c-3.0016 0-4.2192-3.1627-5.418-5.418zm0-55.857c-2.38 4.4775-2.8988 14.933-2.8988 14.933l0.78215 15.713s0.46248 7.1703 2.1167 10.237c1.2125 2.2479 2.4164 5.418 5.418 5.418h17.802c3.0016 0 4.1742-3.1872 5.418-5.418 1.8688-3.3517 2.6458-11.204 2.6458-11.204l0.32196-15.18s-0.63017-10.155-2.9678-14.499c-1.2102-2.2491-2.4164-5.418-5.418-5.418h-17.802c-3.0016 0-4.2192 3.1627-5.418 5.418z" stroke-width=".26458"/>
<circle cx="67.204" cy="66.146" r="40.545" stop-color="#000000" stroke="#000" stroke-width="12.977" style="font-variation-settings:'wdth' 75, 'wght' 600"/>
<path class="UnoptimicedTransforms" transform="matrix(1 0 0 -1 1.0583 132.29)" d="m51.827 53.25c-2.38-4.4775-2.8988-14.933-2.8988-14.933l0.78215-15.713s0.46248-7.1703 2.1167-10.237c1.2125-2.2479 2.4164-5.418 5.418-5.418h17.802c3.0016 0 4.1742 3.1872 5.418 5.418 1.8688 3.3517 2.6458 11.204 2.6458 11.204l0.32196 15.18s-0.63017 10.155-2.9678 14.499c-1.2102 2.2491-2.4164 5.418-5.418 5.418h-17.802c-3.0016 0-4.2192-3.1627-5.418-5.418z" stroke-width=".26458"/>
<path class="UnoptimicedTransforms" transform="matrix(0 1 1 0 1.0928 -.034483)" d="m51.827 53.25c-2.38-4.4775-2.8988-14.933-2.8988-14.933l0.78215-15.713s0.46248-7.1703 2.1167-10.237c1.2125-2.2479 2.4164-5.418 5.418-5.418h17.802c3.0016 0 4.1742 3.1872 5.418 5.418 1.8688 3.3517 2.6458 11.204 2.6458 11.204l0.32196 15.18s-0.63017 10.155-2.9678 14.499c-1.2102 2.2491-2.4164 5.418-5.418 5.418h-17.802c-3.0016 0-4.2192-3.1627-5.418-5.418z" stroke-width=".26458"/>
<path class="UnoptimicedTransforms" transform="matrix(-.70711 .70711 .70711 .70711 67.263 -27.423)" d="m51.827 53.25c-2.38-4.4775-2.8988-14.933-2.8988-14.933l0.78215-15.713s0.46248-7.1703 2.1167-10.237c1.2125-2.2479 2.4164-5.418 5.418-5.418h17.802c3.0016 0 4.1742 3.1872 5.418 5.418 1.8688 3.3517 2.6458 11.204 2.6458 11.204l0.32196 15.18s-0.63017 10.155-2.9678 14.499c-1.2102 2.2491-2.4164 5.418-5.418 5.418h-17.802c-3.0016 0-4.2192-3.1627-5.418-5.418z" stroke-width=".26458"/>
<path class="UnoptimicedTransforms" transform="matrix(.70711 .70711 .70711 -.70711 -26.33 66.121)" d="m51.827 53.25c-2.38-4.4775-2.8988-14.933-2.8988-14.933l0.78215-15.713s0.46248-7.1703 2.1167-10.237c1.2125-2.2479 2.4164-5.418 5.418-5.418h17.802c3.0016 0 4.1742 3.1872 5.418 5.418 1.8688 3.3517 2.6458 11.204 2.6458 11.204l0.32196 15.18s-0.63017 10.155-2.9678 14.499c-1.2102 2.2491-2.4164 5.418-5.418 5.418h-17.802c-3.0016 0-4.2192-3.1627-5.418-5.418z" stroke-width=".26458"/>
<path d="m19.061 94.024c1.4832-4.849 8.5098-12.609 8.5098-12.609l11.664-10.558s5.3972-4.7431 8.7355-5.7421c2.4469-0.73218 5.5397-2.1224 7.6622-1e-6l12.588 12.588c2.1224 2.1224 0.69785 5.2053 0 7.6622-1.0485 3.6915-6.0517 9.7935-6.0517 9.7935l-10.506 10.962s-7.6263 6.7352-12.351 8.1541c-2.4461 0.73463-5.5397 2.1224-7.6622 1e-5l-12.588-12.588c-2.1224-2.1224-0.74704-5.2198 2e-6 -7.6622z" stroke-width=".26458"/>
<circle cx="67.204" cy="66.146" r="23.748" fill="#fff" stop-color="#000000" stroke="#fff" stroke-width="13.229" style="font-variation-settings:'wdth' 75, 'wght' 600"/>
</svg>
