<?xml version="1.0" encoding="UTF-8"?>
<svg width="500" height="500" version="1.1" viewBox="0 0 132.29 132.29" xmlns="http://www.w3.org/2000/svg">
<g stroke-linecap="round" stroke-linejoin="bevel">
<path transform="matrix(0 2.083 2.083 0 33.92 -8.8544)" d="m58.567-10.512 0.03016 51.965a1.5276 1.5276 149.97 0 1-2.2906 1.3242l-45.018-25.956a1.5276 1.5276 89.967 0 1-0.0015-2.6458l44.988-26.009a1.5276 1.5276 29.967 0 1 2.2921 1.3216z" fill="#ff2424" stop-color="#000000" stroke="#a40000" stroke-width="2.5404" style="font-variation-settings:'wdth' 75, 'wght' 600"/>
<g transform="matrix(1.1513 0 0 .97304 -1.2774 -3.7265)" fill="#e6e6e6" stop-color="#000000" stroke="#a30000" stroke-width="2.4998" aria-label="!">
<path d="m58.514 98.061c-1.7812 0-3.2593 0.62178-4.4355 1.8652-1.1762 1.2435-1.7656 2.756-1.7656 4.5371 0 1.7139 0.60656 3.2093 1.8164 4.4863 1.2098 1.2771 2.6708 1.916 4.3848 1.916 1.7476 0 3.2257-0.62179 4.4355-1.8652 1.2434-1.2771 1.8652-2.7896 1.8652-4.5371 0-1.1762-0.28415-2.252-0.85547-3.2266-0.57132-0.9746-1.3457-1.7471-2.3203-2.3184-0.94099-0.57132-1.9824-0.85742-3.125-0.85742z"/>
<path d="m58.615 38.734c-1.9492 0-3.4789 0.82397-4.5879 2.4707-1.0754 1.6467-1.6133 4.1339-1.6133 7.4609 0 1.0754 0.48829 5.7464 1.4629 14.014l2.9727 27.775h2.875l2.5195-23.289c0.20164-1.9828 0.65558-5.2596 1.3613-9.8301 0.73935-4.5705 1.1094-7.8473 1.1094-9.8301 0-2.8902-0.57221-5.074-1.7148-6.5527-1.109-1.4787-2.57-2.2188-4.3848-2.2188z"/>
</g>
</g>
</svg>
