<?xml version="1.0" encoding="UTF-8"?>
<svg width="500" height="500" version="1.1" viewBox="0 0 132.29 132.29" xmlns="http://www.w3.org/2000/svg">
<g stroke-linecap="round" stroke-linejoin="bevel">
<path transform="matrix(0 2.083 2.083 0 33.92 -8.8544)" d="m58.567-10.512 0.03016 51.965a1.5276 1.5276 149.97 0 1-2.2906 1.3242l-45.018-25.956a1.5276 1.5276 89.967 0 1-0.0015-2.6458l44.988-26.009a1.5276 1.5276 29.967 0 1 2.2921 1.3216z" fill="#ff2424" stop-color="#000000" stroke="#a40000" stroke-width="2.5404" style="font-variation-settings:'wdth' 75, 'wght' 600"/>
<g transform="matrix(1.4658 0 0 1.2388 -19.694 -23.606)" fill="#e6e6e6" stop-color="#000000" stroke-width="1.9635" aria-label="!">
<path d="m58.529 90.909c-1.2335 0-2.2572 0.4306-3.0717 1.2917-0.81456 0.86117-1.2227 1.9086-1.2227 3.1421 0 1.1869 0.42006 2.2226 1.2579 3.1069 0.83783 0.88444 1.8496 1.3269 3.0366 1.3269 1.2103 0 2.2339-0.43061 3.0717-1.2917 0.8611-0.88444 1.2917-1.9319 1.2917-3.1421 0-0.81456-0.19678-1.5596-0.59244-2.2345-0.39566-0.67494-0.93194-1.2099-1.6069-1.6056-0.65167-0.39566-1.3729-0.59379-2.1642-0.59379z"/>
<path d="m58.599 49.823c-1.3499 0-2.4093 0.57063-3.1773 1.711-0.74475 1.1404-1.1173 2.8629-1.1173 5.1669 0 0.74475 0.33816 3.9796 1.0131 9.7052l2.0587 19.235h1.991l1.7448-16.128c0.13964-1.3732 0.45401-3.6425 0.94275-6.8077 0.51203-3.1652 0.7683-5.4345 0.7683-6.8077 0-2.0016-0.39628-3.5139-1.1876-4.538-0.76802-1.0241-1.7798-1.5366-3.0366-1.5366z"/>
</g>
</g>
</svg>
